<?xml version="1.0" standalone="no"?>
<!DOCTYPE svg PUBLIC "-//W3C//DTD SVG 20010904//EN"
 "http://www.w3.org/TR/2001/REC-SVG-20010904/DTD/svg10.dtd">
<svg version="1.0" xmlns="http://www.w3.org/2000/svg"
 width="720.000000pt" height="720.000000pt" viewBox="0 0 720.000000 720.000000"
 preserveAspectRatio="xMidYMid meet">

<g transform="translate(0.000000,720.000000) scale(0.100000,-0.100000)"
fill="#000000" stroke="none">
<path d="M3228 6998 c-30 -35 -73 -90 -96 -123 -22 -33 -57 -78 -77 -100 -130
-145 -288 -425 -359 -638 -41 -125 -51 -180 -37 -204 9 -16 10 -16 11 5 1 78
83 300 191 514 41 82 150 251 168 263 6 3 -7 -32 -29 -77 -43 -93 -68 -156
-80 -208 -48 -203 -59 -259 -65 -331 -4 -46 -2 -95 3 -108 7 -19 10 2 15 85 5
105 33 245 77 387 45 145 157 356 266 500 41 53 72 97 70 97 -2 0 -28 -28 -58
-62z"/>
<path d="M4717 7013 c-3 -4 -8 -42 -12 -83 -15 -171 -116 -491 -229 -726 -58
-119 -82 -161 -169 -288 -42 -62 -59 -96 -47 -96 13 0 150 210 206 315 53 101
100 215 155 377 24 70 45 126 47 123 17 -17 -136 -574 -222 -810 -7 -18 -5
-17 13 3 34 39 89 206 165 507 51 200 65 272 76 393 6 59 14 148 19 197 9 87
8 105 -2 88z"/>
<path d="M3528 6918 c-122 -142 -237 -301 -311 -430 -42 -73 -126 -274 -153
-367 -24 -85 -33 -171 -14 -141 5 8 10 25 10 38 0 42 81 267 136 380 60 120
89 151 47 50 -65 -161 -98 -361 -77 -467 12 -58 19 -32 20 72 0 58 8 134 18
176 34 149 120 372 161 421 7 8 18 31 24 50 6 20 30 58 52 85 23 28 60 75 82
105 22 30 47 61 55 67 9 7 13 15 10 18 -3 3 -30 -22 -60 -57z"/>
<path d="M2313 6953 c-79 -70 -326 -428 -404 -583 -115 -231 -190 -473 -193
-622 -2 -95 17 -90 26 7 12 131 55 291 122 458 34 83 75 167 61 122 -38 -115
-55 -217 -61 -373 -5 -111 -3 -171 3 -175 7 -4 12 54 16 166 4 124 11 193 25
247 59 223 144 399 291 600 30 41 57 77 61 80 3 3 23 24 44 48 39 43 43 56 9
25z"/>
<path d="M2489 6883 c-100 -108 -272 -355 -334 -482 -56 -114 -102 -249 -114
-336 -17 -119 -24 -261 -12 -250 5 6 15 66 20 135 12 139 30 212 87 347 41 97
58 117 30 36 -33 -95 -78 -378 -69 -439 9 -65 23 -53 23 19 0 118 61 393 118
538 64 159 166 326 265 432 24 26 40 47 37 47 -4 0 -27 -21 -51 -47z"/>
<path d="M4381 6834 c0 -11 3 -14 6 -6 3 7 2 16 -1 19 -3 4 -6 -2 -5 -13z"/>
<path d="M4361 6770 c-22 -83 -33 -114 -102 -283 -69 -170 -221 -455 -295
-551 -20 -27 -31 -47 -23 -44 21 7 111 130 155 213 21 40 40 72 42 70 5 -4
-64 -177 -95 -239 -16 -31 -20 -47 -11 -44 23 7 103 182 153 335 27 82 67 193
88 248 54 138 109 313 104 328 -2 6 -10 -8 -16 -33z"/>
<path d="M5465 6623 c-11 -78 -51 -224 -89 -326 -20 -52 -36 -98 -36 -101 0
-4 -27 -68 -61 -144 -58 -132 -147 -299 -173 -325 -21 -20 -76 -99 -76 -108 0
-43 101 96 183 251 112 214 180 384 241 605 32 119 33 77 1 -161 -38 -280 -61
-402 -96 -501 -17 -48 -40 -114 -51 -146 -21 -59 -17 -87 7 -54 20 28 85 222
106 319 28 129 82 576 74 623 -3 22 -7 55 -9 73 -5 50 -13 48 -21 -5z"/>
<path d="M1544 6545 c-46 -32 -215 -272 -245 -347 -6 -16 -14 -28 -18 -28 -4
0 -7 -8 -8 -19 -2 -24 -35 -75 -51 -79 -8 -1 -11 2 -7 8 3 5 8 38 10 72 4 61
4 62 -11 35 -11 -21 -20 -26 -35 -22 -12 4 -19 2 -19 -6 0 -7 -2 -10 -5 -7 -8
8 39 88 50 84 6 -2 10 9 10 24 0 22 -3 26 -15 20 -26 -14 -67 -64 -90 -107
-16 -31 -28 -43 -44 -43 -25 0 -70 -42 -59 -54 5 -4 1 -6 -7 -4 -11 2 -14 -4
-12 -22 1 -18 -1 -21 -7 -11 -11 17 -34 4 -27 -16 3 -8 1 -11 -4 -8 -12 7 -55
-38 -154 -160 -259 -322 -453 -674 -592 -1071 l-28 -82 34 -38 c19 -22 43 -39
55 -40 11 0 26 -3 33 -8 12 -7 16 4 12 34 -1 8 -15 36 -31 61 -44 70 -54 105
-38 137 8 15 20 32 28 38 8 6 11 16 7 22 -4 7 -2 12 3 12 6 0 26 30 45 68 19
37 53 92 75 122 67 90 155 218 172 250 23 43 40 61 50 54 5 -3 9 0 9 5 0 6 11
11 25 11 29 0 31 -13 11 -67 -7 -21 -19 -58 -27 -83 -7 -25 -16 -49 -21 -54
-4 -6 -8 -16 -8 -24 0 -8 -6 -28 -14 -45 -26 -59 -161 -430 -183 -502 -8 -27
-23 -66 -33 -85 -10 -19 -28 -61 -40 -93 -12 -31 -27 -60 -32 -63 -6 -4 -56
-6 -112 -5 l-103 2 -16 -78 c-38 -180 -73 -449 -65 -505 3 -24 8 -20 55 50 28
42 99 169 156 282 96 187 153 320 307 724 29 76 68 172 86 214 30 70 33 73 40
48 5 -20 9 -24 15 -15 4 8 3 16 -3 20 -7 4 -7 9 1 13 6 4 11 2 11 -3 0 -6 9
-11 19 -11 11 0 22 -6 24 -12 4 -10 6 -10 6 0 1 6 11 12 22 12 16 0 20 -5 17
-18 -3 -11 1 -18 11 -18 9 0 26 -4 39 -8 15 -5 22 -3 22 6 0 9 14 13 44 13 34
0 42 -3 38 -14 -4 -11 -1 -13 12 -8 13 5 19 1 23 -13 5 -20 6 -20 19 -2 18 26
37 114 26 121 -5 3 -12 29 -15 56 -4 32 -3 43 3 30 8 -18 9 -18 10 5 2 24 2
24 11 -5 5 -16 7 -40 4 -52 -3 -13 -1 -23 5 -23 5 0 7 -14 5 -32 -4 -26 -3
-29 4 -13 7 15 10 16 11 5 2 -8 2 -18 1 -23 -1 -4 7 -2 17 4 16 10 18 18 11
53 -11 55 -11 68 0 62 5 -4 7 3 4 13 -4 16 -1 19 16 14 14 -4 21 -1 21 10 0
20 -31 31 -42 15 -6 -10 -8 -8 -8 5 0 10 10 22 23 27 16 6 17 9 5 9 -18 1 -34
19 -25 27 10 10 47 -17 47 -33 0 -9 3 -14 6 -10 10 10 -5 58 -16 52 -6 -3 -10
-1 -10 5 0 6 -4 8 -10 5 -5 -3 -10 -1 -10 4 0 6 7 11 15 11 9 0 15 9 15 23 0
18 -2 19 -10 7 -8 -12 -10 -11 -10 7 0 25 16 39 23 21 3 -7 6 -1 6 14 1 14 -4
28 -10 30 -6 2 -7 12 -1 27 7 20 10 13 21 -45 11 -68 21 -127 23 -151 1 -14
26 -26 37 -19 4 3 4 36 -1 73 -14 106 -14 304 0 333 11 22 12 20 6 -20 -3 -25
-7 -61 -9 -80 -2 -35 -2 -35 8 -7 6 15 14 27 19 27 4 0 8 -12 8 -27 0 -22 2
-25 10 -13 18 28 23 99 9 116 -12 15 -14 14 -20 -7 -3 -13 -6 4 -5 38 1 63 11
83 19 41 4 -22 4 -22 6 2 1 20 3 22 11 10 6 -9 10 -10 10 -3 0 6 -4 15 -10 18
-5 3 -10 16 -11 28 l0 22 -9 -22 c-14 -34 -20 -28 -9 9 5 18 9 34 9 36 0 2 5
0 10 -3 7 -4 9 2 5 18 -4 14 -1 30 7 38 8 8 14 23 15 34 2 24 31 95 39 95 3 0
3 -7 0 -16 -3 -8 -2 -13 3 -10 5 3 11 15 14 26 3 11 1 18 -4 14 -17 -10 -9 8
42 105 80 149 163 270 218 318 30 26 9 33 -25 8z m-334 -424 c0 -17 -5 -33
-10 -36 -6 -3 -8 -18 -5 -33 5 -27 5 -27 -5 -3 -6 14 -8 31 -5 39 3 8 0 21 -6
28 -13 15 -4 34 17 34 9 0 14 -10 14 -29z m-157 -16 c-3 -9 -8 -14 -10 -11 -3
3 -2 9 2 15 9 16 15 13 8 -4z m97 -15 c-6 -11 -16 -20 -23 -20 -7 0 -6 4 3 10
8 5 11 10 5 10 -5 0 -3 5 5 10 21 14 22 13 10 -10z m-90 -25 c0 -8 -4 -15 -10
-15 -5 0 -7 7 -4 15 4 8 8 15 10 15 2 0 4 -7 4 -15z m151 -35 l20 25 -18 -37
c-9 -21 -21 -38 -26 -38 -4 0 -6 -10 -3 -22 3 -13 3 -17 0 -10 -3 6 -11 9 -17
5 -7 -4 -5 4 5 18 11 17 13 31 7 40 -7 12 -9 11 -9 -3 0 -12 -6 -15 -22 -10
l-22 5 22 8 c12 5 22 13 22 19 0 6 -4 9 -9 5 -5 -3 -13 0 -17 6 -4 8 -3 9 4 5
8 -4 12 0 12 11 1 10 7 3 16 -17 l15 -35 20 25z m-241 -70 c0 -5 -5 -10 -11
-10 -5 0 -7 5 -4 10 3 6 8 10 11 10 2 0 4 -4 4 -10z m97 -72 c-3 -8 -6 -5 -6
6 -1 11 2 17 5 13 3 -3 4 -12 1 -19z m70 -50 c-3 -8 -6 -5 -6 6 -1 11 2 17 5
13 3 -3 4 -12 1 -19z m-29 -109 c-6 -16 -12 -28 -14 -26 -5 5 13 57 20 57 3 0
0 -14 -6 -31z m119 -36 c-3 -10 -5 -4 -5 12 0 17 2 24 5 18 2 -7 2 -21 0 -30z
m-174 -23 c-3 -12 -8 -19 -11 -16 -5 6 5 36 12 36 2 0 2 -9 -1 -20z m4 -72
c-3 -8 -6 -5 -6 6 -1 11 2 17 5 13 3 -3 4 -12 1 -19z m-10 -40 c-3 -8 -6 -5
-6 6 -1 11 2 17 5 13 3 -3 4 -12 1 -19z m-90 -190 c-3 -8 -6 -5 -6 6 -1 11 2
17 5 13 3 -3 4 -12 1 -19z"/>
<path d="M5872 6318 c-6 -35 -16 -94 -22 -131 -11 -69 -106 -369 -140 -442
-10 -22 -33 -71 -51 -110 -19 -38 -58 -107 -88 -153 -30 -45 -52 -84 -49 -87
8 -8 92 104 141 190 64 112 107 218 152 375 21 74 42 140 48 145 16 17 -2
-196 -34 -395 -32 -196 -56 -294 -95 -374 -27 -57 -20 -76 19 -46 44 35 237
327 237 359 0 23 18 10 23 -16 4 -16 13 -59 21 -98 52 -246 81 -714 66 -1065
-14 -322 -77 -744 -137 -920 -19 -54 -156 -325 -182 -359 -19 -24 -20 -24 -75
-11 -49 12 -59 11 -71 -1 -15 -15 -64 -152 -106 -294 -12 -44 -30 -90 -38
-102 -22 -31 -65 -30 -260 3 l-33 5 6 70 c6 53 4 70 -6 73 -80 23 -314 67
-332 62 -20 -5 -25 -14 -30 -58 -9 -72 -16 -81 -58 -73 -60 11 -60 11 -27 133
16 62 27 117 24 121 -2 5 -22 12 -42 16 -95 17 -219 59 -242 81 -13 13 -30 24
-37 24 -23 0 -83 68 -114 130 -36 72 -62 176 -61 247 1 86 68 194 170 275 l54
42 -9 -44 c-5 -25 -9 -85 -8 -135 1 -70 5 -99 22 -131 49 -95 159 -153 269
-140 64 7 106 27 151 69 40 38 41 57 4 57 -20 0 -33 7 -41 24 -29 53 33 88 87
50 13 -9 25 -14 27 -12 2 2 7 50 11 107 l7 103 23 -29 c34 -41 114 -197 114
-222 0 -12 -9 -55 -20 -97 -22 -80 -20 -94 10 -94 29 0 46 34 74 145 35 141
41 237 22 378 -24 180 -65 297 -137 388 -16 20 -29 39 -29 42 0 8 120 -37 178
-67 79 -40 215 -137 260 -185 70 -74 80 -92 98 -187 28 -153 8 -323 -54 -437
-30 -56 -25 -71 10 -25 43 56 99 236 105 338 3 50 9 90 14 90 12 0 84 -110
125 -191 20 -41 39 -69 41 -63 6 16 -55 250 -78 303 -24 54 -24 73 -1 69 10
-2 35 -38 62 -93 29 -58 46 -83 48 -71 2 10 -13 52 -34 92 -21 41 -35 76 -32
79 3 4 44 14 89 24 83 17 165 51 143 58 -7 2 -40 -5 -74 -17 -34 -12 -90 -24
-124 -27 l-62 -6 -44 54 c-173 210 -251 274 -455 374 -130 64 -254 102 -385
116 -52 6 -101 13 -108 15 -16 5 -93 124 -86 135 2 4 10 6 17 4 7 -2 46 -6 87
-9 94 -6 62 10 -38 20 -63 6 -71 9 -76 30 -8 30 -26 31 -26 2 0 -23 -3 -23
-128 -25 -113 -2 -246 -21 -375 -52 -22 -5 -39 -5 -43 0 -10 17 -22 9 -38 -22
-15 -30 -15 -31 7 -25 20 5 31 -6 81 -81 l57 -86 -43 -44 c-23 -23 -38 -43
-32 -43 5 0 15 5 22 12 9 9 12 6 12 -15 0 -42 -40 -118 -88 -165 -24 -24 -41
-46 -39 -49 3 -2 45 21 94 53 48 31 122 73 163 92 78 36 220 85 227 78 2 -2
-26 -32 -62 -67 -37 -35 -61 -65 -55 -67 6 -2 24 7 38 22 32 30 108 59 133 51
10 -4 30 -20 44 -36 21 -26 25 -41 25 -94 0 -82 -30 -165 -73 -201 -50 -42
-132 -77 -166 -69 -48 10 -65 39 -66 105 0 32 -3 56 -7 54 -23 -14 -92 -166
-112 -246 -34 -132 -40 -203 -26 -310 20 -157 107 -307 210 -361 30 -16 32
-20 17 -28 -9 -6 -17 -16 -17 -23 0 -8 -11 -51 -24 -97 -13 -46 -26 -96 -30
-112 -6 -25 -9 -27 -49 -22 -31 4 -37 3 -22 -4 34 -16 -1 -13 -186 18 -96 16
-268 41 -384 55 -115 15 -255 33 -310 41 -133 20 -354 40 -672 62 -230 15
-259 19 -241 32 16 11 45 12 145 6 77 -4 129 -3 136 3 7 6 33 7 67 1 30 -4
141 -20 245 -34 105 -14 280 -41 390 -60 110 -18 281 -43 380 -55 99 -12 227
-30 284 -41 57 -11 105 -18 108 -16 10 10 -192 48 -362 67 -99 12 -301 41
-450 65 -148 24 -342 54 -430 65 -88 12 -194 25 -235 31 -165 22 -412 30 -543
18 -145 -13 -161 -10 -286 47 -129 60 -291 101 -596 152 -60 10 -109 23 -108
28 1 5 13 53 27 106 38 142 36 189 -25 786 -5 56 -8 106 -5 111 6 10 86 -7
164 -35 39 -14 51 -23 46 -34 -10 -26 -74 -267 -74 -279 0 -24 18 -9 24 19 8
41 49 127 81 170 l27 35 -7 -75 c-7 -84 13 -223 39 -280 l16 -35 -5 35 c-24
173 -12 292 45 436 35 90 59 120 150 191 115 90 278 151 427 160 51 3 93 3 93
0 0 -3 -16 -13 -35 -23 -78 -37 -165 -138 -102 -120 89 26 116 14 124 -57 5
-41 0 -59 -31 -122 -20 -40 -55 -95 -79 -120 -38 -43 -48 -48 -95 -53 l-52 -5
-16 39 c-17 39 -13 106 7 130 6 8 6 14 0 18 -27 17 -134 -243 -162 -392 -19
-102 -7 -244 27 -325 42 -99 149 -218 193 -216 13 0 12 3 -4 12 -49 30 -125
112 -143 155 -58 134 -48 334 20 419 25 32 186 149 193 141 2 -2 -5 -34 -15
-73 -29 -108 -26 -191 8 -256 32 -62 69 -87 139 -96 78 -9 154 18 194 68 l32
40 -29 30 c-37 39 -24 65 30 62 33 -2 36 0 46 35 5 20 10 56 10 80 0 23 4 42
9 42 19 0 111 -113 122 -149 9 -31 8 -48 -10 -105 -12 -38 -21 -77 -21 -88 0
-17 21 -48 33 -48 7 0 56 132 71 194 23 86 31 276 16 371 -12 84 -52 214 -78
253 -21 33 -7 39 26 11 80 -70 116 -108 133 -141 19 -37 39 -50 39 -25 -1 6
-7 23 -15 37 -9 15 -14 54 -15 98 l0 72 25 -16 c40 -26 29 1 -15 36 -22 18
-88 61 -147 96 -163 98 -259 129 -431 140 -143 8 -233 -6 -387 -62 -90 -32
-135 -44 -154 -39 -25 6 -134 109 -158 150 -10 17 -12 18 -12 3 -1 -10 28 -53
64 -97 36 -44 65 -86 65 -93 0 -8 -14 -22 -31 -32 -37 -22 -221 -197 -215
-204 9 -8 53 26 102 78 52 56 70 60 30 7 -14 -19 -26 -37 -26 -40 0 -3 -16
-33 -36 -66 l-36 -61 -63 0 c-34 0 -87 5 -118 11 l-56 12 -8 46 c-4 25 -7 188
-8 361 0 326 7 412 46 535 18 58 18 78 0 59 -16 -15 -49 -156 -60 -255 -6 -52
-12 -169 -13 -260 -3 -147 -5 -165 -19 -162 -22 6 -90 -206 -119 -372 -12 -66
-28 -154 -35 -195 -7 -41 -16 -142 -20 -225 -4 -82 -9 -152 -11 -154 -3 -3
-50 2 -107 10 l-102 14 -9 105 c-11 132 7 444 35 590 26 138 58 251 75 271 8
8 14 22 14 29 0 25 33 119 41 115 4 -3 5 4 2 15 -7 26 -18 33 -31 17 -23 -29
-94 -297 -128 -487 -17 -92 -20 -98 -98 -210 -44 -63 -94 -134 -110 -156 -126
-169 -418 -462 -424 -425 -2 13 -19 20 -80 28 -42 6 -79 9 -81 7 -12 -12 21
-24 76 -30 l61 -7 -19 -65 c-10 -36 -23 -70 -29 -76 -5 -5 -10 -18 -10 -28 0
-14 -6 -16 -32 -12 -18 3 -39 8 -46 10 -9 3 -12 -4 -10 -23 3 -27 5 -27 128
-45 69 -9 204 -26 300 -38 486 -57 1019 -139 1118 -171 40 -13 40 -14 2 -207
-16 -83 -37 -192 -45 -244 -9 -51 -20 -113 -25 -138 -4 -25 -20 -106 -34 -180
-25 -125 -54 -281 -126 -670 -16 -85 -45 -245 -65 -355 -20 -110 -50 -271 -67
-358 -24 -119 -29 -160 -20 -169 6 -6 14 -9 17 -6 3 3 26 117 50 254 61 340
121 664 139 754 8 41 19 100 23 130 7 52 8 49 14 -55 7 -127 28 -192 87 -270
76 -100 197 -150 362 -150 105 0 141 8 228 47 49 22 49 26 12 110 -29 66 -43
75 -86 55 -50 -24 -174 -22 -257 3 -86 27 -149 85 -171 161 -34 114 -12 219
62 299 40 44 56 54 107 66 135 31 245 6 338 -76 30 -28 62 -50 69 -50 19 0
151 91 156 108 6 21 -93 107 -168 146 -111 58 -203 79 -339 74 -135 -4 -182
-21 -256 -89 -48 -44 -78 -91 -107 -169 -21 -57 -22 -33 -3 67 8 43 21 116 28
163 27 156 130 725 132 728 2 2 27 -3 57 -12 75 -22 271 -66 316 -71 20 -2 84
-13 142 -25 58 -12 143 -23 190 -25 100 -5 59 5 -100 25 -160 20 -251 44 -300
78 -45 32 -140 67 -140 52 0 -4 27 -18 60 -30 33 -12 63 -27 66 -31 9 -15 -11
-10 -67 15 -30 13 -70 27 -89 30 l-35 6 30 -15 30 -15 -36 5 c-19 3 -70 17
-112 30 -122 40 -503 115 -584 115 -33 0 -41 12 -25 38 7 10 44 8 188 -13 394
-56 582 -98 753 -170 150 -62 179 -68 261 -56 77 12 297 13 380 1 46 -6 34 -8
-70 -9 -69 -1 -143 -6 -165 -10 l-40 -9 53 -1 c33 -1 51 -5 47 -11 -4 -6 11
-10 37 -11 l43 -1 -38 -8 c-76 -14 -45 -19 140 -18 170 0 512 -23 743 -52 518
-64 889 -119 1155 -170 97 -19 361 -61 435 -70 41 -5 118 -15 170 -24 52 -8
151 -22 220 -31 69 -8 186 -25 260 -36 675 -102 708 -107 885 -149 156 -38
322 -84 331 -92 2 -3 -5 -40 -15 -84 -11 -43 -34 -144 -51 -224 -18 -80 -50
-221 -71 -315 -56 -240 -52 -222 -38 -208 6 6 29 87 50 180 115 512 141 634
136 647 -9 23 -337 118 -522 150 -51 9 -69 16 -68 27 1 7 9 47 18 88 9 40 13
77 8 82 -10 10 -236 59 -274 59 -36 0 -34 5 38 86 99 111 130 149 215 264 99
135 201 291 243 373 29 54 30 56 36 30 5 -27 5 -26 10 9 3 20 1 34 -4 31 -4
-2 2 15 15 40 15 29 26 41 31 33 5 -6 7 -2 4 11 -6 29 8 39 21 16 9 -15 10
-14 9 7 0 14 3 34 7 45 5 13 2 12 -9 -5 l-16 -25 7 25 c4 14 13 38 21 53 8 16
16 37 18 48 2 10 10 33 18 51 19 44 47 174 47 219 0 27 -5 38 -18 41 -16 5
-18 -1 -18 -46 -1 -31 -9 -69 -22 -96 -11 -25 -20 -36 -18 -25 1 11 7 29 13
39 8 14 7 25 -5 46 -13 22 -14 34 -4 61 l11 34 -2 -44 c-1 -24 3 -46 8 -48 7
-2 10 14 8 43 -3 53 8 80 38 89 16 5 19 12 15 31 -4 14 -2 24 4 24 5 0 10 21
10 46 0 25 4 53 9 62 4 9 11 38 14 65 6 46 6 47 -21 48 -20 1 -22 3 -7 6 35 8
60 61 64 137 3 75 -3 86 -51 86 -15 0 -29 4 -32 8 -3 4 -21 6 -40 4 -30 -4
-36 -8 -36 -29 0 -13 -4 -21 -10 -18 -5 3 -10 -3 -10 -14 0 -12 -4 -21 -10
-21 -14 0 -13 -37 2 -42 8 -3 9 -11 3 -24 -8 -18 -9 -17 -13 5 -3 18 -9 22
-28 18 -18 -3 -24 0 -24 13 0 21 -36 33 -62 19 -15 -8 -18 -6 -18 14 0 50 -12
86 -26 80 -12 -4 -14 3 -9 38 l5 44 -15 -50 -14 -50 4 45 c2 25 9 72 15 105 6
33 13 92 16 130 2 39 9 122 14 185 14 166 13 263 -2 258 -16 -6 -24 -70 -33
-243 -4 -71 -11 -146 -16 -165 -5 -19 -9 -49 -9 -67 0 -17 -4 -35 -10 -38 -5
-3 -10 -21 -10 -39 0 -18 -9 -79 -19 -137 -32 -168 -33 -172 -42 -157 -6 9 -9
9 -9 1 0 -6 4 -14 9 -17 10 -7 3 -44 -11 -62 -5 -7 -8 -16 -6 -20 4 -18 -24
-154 -33 -154 -4 0 -6 -7 -3 -15 4 -8 1 -15 -6 -15 -6 0 -9 -4 -5 -9 3 -6 -4
-36 -15 -68 -11 -31 -20 -65 -20 -75 0 -9 -10 -49 -22 -88 -16 -52 -26 -69
-36 -65 -12 4 -12 3 -3 -9 14 -17 5 -60 -11 -50 -6 4 -8 -1 -4 -14 4 -11 -3
-48 -15 -84 -19 -58 -39 -99 -26 -53 9 30 17 74 22 130 3 28 8 59 12 70 7 21
7 23 20 185 13 167 10 787 -5 940 -8 74 -25 194 -38 267 -44 241 -45 260 -24
322 51 152 91 364 73 382 -7 7 -16 -22 -27 -83 -9 -51 -23 -113 -30 -138 -40
-129 -62 -192 -68 -197 -5 -2 -8 -14 -8 -26 0 -23 -23 -65 -115 -217 -94 -154
-113 -172 -75 -71 12 29 36 153 55 275 33 209 34 233 32 448 -1 126 -3 228 -3
228 -1 0 -7 -28 -12 -62z m-1166 -1609 c24 -74 21 -77 -56 -78 -64 -1 -208
-28 -275 -51 -32 -11 -66 -20 -75 -20 -17 0 -122 97 -140 129 -5 11 -6 22 -2
25 5 3 55 15 113 26 111 24 269 39 359 35 l55 -2 21 -64z m1668 8 c-5 -12 -7
-28 -5 -36 1 -7 -1 -20 -5 -30 -4 -9 -7 -32 -8 -51 -2 -35 -22 -106 -36 -125
-4 -5 -10 -22 -14 -37 -3 -16 -11 -28 -16 -28 -12 0 -13 23 -1 36 5 5 11 27
14 49 11 89 30 181 43 206 7 15 11 29 7 32 -3 4 -2 14 1 24 7 17 8 17 17 0 6
-9 7 -27 3 -40z m-5130 -402 c9 -93 21 -222 27 -285 6 -63 15 -153 20 -200 5
-47 9 -106 9 -131 0 -42 -44 -266 -54 -277 -3 -2 -45 2 -94 8 l-90 13 -7 52
c-5 43 0 78 25 174 17 66 29 125 25 131 -3 5 -18 10 -32 10 l-26 0 8 113 c8
120 9 136 20 237 12 116 71 380 111 503 l29 87 6 -132 c4 -73 14 -209 23 -303z
m5166 395 c0 -5 -4 -10 -10 -10 -5 0 -10 5 -10 10 0 6 5 10 10 10 6 0 10 -4
10 -10z m0 -45 c0 -14 -4 -25 -10 -25 -5 0 -10 11 -10 25 0 14 5 25 10 25 6 0
10 -11 10 -25z m32 -7 c-9 -9 -12 -7 -12 12 0 19 3 21 12 12 9 -9 9 -15 0 -24z
m26 -95 c-2 -50 -7 -78 -15 -81 -10 -3 -13 17 -13 77 0 66 3 81 15 81 13 0 15
-13 13 -77z m-4098 -41 c0 -26 -25 -56 -38 -48 -13 8 -16 48 -5 59 14 14 43 7
43 -11z m3987 -34 c1 -24 -4 -49 -10 -56 -12 -15 6 -32 36 -32 20 0 22 -11 5
-28 -18 -18 -28 -15 -28 8 0 12 -7 20 -16 20 -10 0 -15 -8 -14 -22 4 -46 0
-58 -20 -58 -11 0 -20 5 -20 11 0 5 -4 7 -10 4 -6 -4 -10 7 -10 25 0 25 5 33
28 41 24 8 30 18 40 69 7 33 14 60 16 60 2 0 3 -19 3 -42z m-5583 -395 l-2
-268 -30 -90 c-16 -49 -37 -121 -47 -158 -10 -38 -25 -71 -33 -74 -18 -8 -211
18 -218 28 -4 8 59 119 116 204 34 50 73 126 67 131 -3 4 -81 -115 -173 -264
-27 -43 -49 -68 -63 -70 -12 -2 -21 2 -21 8 0 22 54 177 92 265 22 50 53 126
70 170 28 71 109 202 208 337 19 26 35 47 35 48 0 0 -1 -120 -1 -267z m5506
209 c0 -8 -3 -12 -7 -9 -9 10 -45 -94 -39 -115 2 -11 -2 -18 -10 -18 -15 0
-12 29 9 80 14 34 14 36 16 71 1 27 3 30 16 19 8 -7 15 -19 15 -28z m303 11
c9 -8 -22 -43 -39 -43 -17 0 -27 18 -20 35 5 15 47 21 59 8z m-1798 -84 c4
-11 5 -23 2 -26 -12 -11 -47 10 -47 28 0 26 37 25 45 -2z m1499 -27 c7 -25 15
-32 35 -33 23 -2 24 -2 4 -6 -19 -4 -23 -11 -23 -44 0 -46 -25 -54 -40 -13 -6
14 -13 23 -17 21 -5 -2 -16 -7 -27 -11 -15 -5 -16 -9 -6 -21 7 -8 8 -15 3 -15
-5 0 -15 -11 -21 -25 -15 -33 -15 -36 4 -28 13 5 14 -1 9 -38 -7 -47 -11 -56
-21 -46 -4 3 -1 21 5 39 10 30 9 31 -4 14 -20 -26 -19 -55 1 -63 13 -5 13 -7
2 -14 -10 -7 -10 -9 0 -9 9 0 11 -10 6 -35 -5 -28 -3 -35 9 -35 9 0 28 -5 42
-12 23 -11 25 -16 25 -85 l0 -73 33 0 c18 0 38 5 45 12 9 9 12 5 13 -18 0 -16
5 -38 10 -49 l9 -20 -3 20 c-1 11 4 26 13 33 13 12 13 13 -3 8 -12 -4 -17 -2
-15 6 3 7 15 14 27 14 17 1 22 -3 18 -17 -3 -11 -2 -19 3 -19 4 0 11 11 14 25
4 16 11 23 18 19 9 -6 9 -9 1 -11 -7 -3 -10 -10 -7 -17 3 -7 -2 -19 -11 -26
-8 -7 -15 -18 -15 -24 0 -7 -15 -32 -32 -56 -18 -24 -45 -67 -60 -94 -14 -28
-31 -50 -37 -49 -6 2 -8 -3 -5 -10 6 -16 -30 -60 -40 -50 -4 4 -4 0 -1 -9 5
-11 -5 -29 -27 -52 -18 -19 -57 -69 -87 -111 -40 -58 -56 -74 -63 -64 -6 10
-7 6 -3 -10 6 -19 4 -23 -8 -18 -11 4 -14 1 -11 -7 7 -17 -24 -48 -38 -40 -7
4 -8 2 -4 -4 4 -7 -16 -36 -47 -69 -30 -32 -66 -71 -81 -87 -31 -34 -30 -35
-11 32 10 33 20 50 27 46 7 -4 8 -3 4 5 -4 6 -2 27 4 45 6 19 12 55 14 81 3
52 -4 58 -71 70 l-41 6 32 57 c17 31 47 90 66 129 19 40 38 73 41 73 4 0 17
27 29 60 12 33 26 60 30 60 4 0 10 14 14 31 3 17 9 28 13 26 5 -3 9 11 10 31
1 20 7 38 13 40 5 2 8 7 5 12 -7 11 15 70 26 70 5 0 9 13 9 29 0 35 19 53 21
19 1 -16 3 -18 6 -6 2 9 0 25 -5 35 -7 13 -3 32 14 67 16 36 23 44 27 30 2
-11 3 -2 1 19 -3 20 -1 37 4 37 4 0 8 10 9 22 1 12 10 48 19 80 14 45 23 59
46 69 29 12 36 25 17 31 -6 2 -8 14 -4 31 9 35 27 30 39 -11z m285 -11 c8 -15
7 -20 -5 -25 -28 -11 -44 -6 -44 12 0 36 33 44 49 13z m-4215 -44 c27 -20 18
-62 -14 -62 -19 0 -26 6 -28 23 -4 27 4 52 16 52 4 0 16 -6 26 -13z m3377 -30
c12 -22 12 -22 -10 -3 -11 11 -21 23 -21 28 0 14 19 -1 31 -25z m846 -119 c-3
-7 -5 -2 -5 12 0 14 2 19 5 13 2 -7 2 -19 0 -25z m-61 -20 c4 -72 6 -135 5
-148 -4 -25 -20 21 -20 58 -1 29 -4 32 -31 32 -28 0 -30 3 -30 34 0 33 2 35
38 39 20 2 37 4 37 5 0 1 1 -8 1 -20z m55 -49 c-9 -22 -10 -22 -10 -3 -1 11 2
24 6 27 12 12 14 0 4 -24z m-22 -51 c-13 -24 -14 -23 -15 11 -1 23 2 26 11 18
9 -8 10 -18 4 -29z m-1784 -68 c0 -20 -6 -26 -28 -28 -18 -2 -29 2 -33 12 -11
28 4 48 33 44 22 -2 28 -8 28 -28z m1537 -73 c2 -33 -1 -57 -7 -57 -6 0 -8 31
-6 82 5 85 8 78 13 -25z m198 89 c0 -3 -4 -8 -10 -11 -5 -3 -10 -1 -10 4 0 6
5 11 10 11 6 0 10 -2 10 -4z m10 -41 c-1 -18 -49 -101 -50 -85 0 9 7 26 16 38
8 12 10 22 5 22 -6 0 -11 8 -11 18 0 11 7 18 20 18 11 0 20 -5 20 -11z m-59
-28 c-8 -8 -11 -7 -11 4 0 20 13 34 18 19 3 -7 -1 -17 -7 -23z m9 -26 c0 -5
-7 -11 -15 -15 -15 -5 -20 5 -8 17 9 10 23 9 23 -2z m-40 -11 c0 -5 -11 -10
-25 -10 -14 0 -25 5 -25 10 0 6 11 10 25 10 14 0 25 -4 25 -10z m-6020 -210
c135 -16 248 -30 252 -30 5 0 8 -7 8 -15 0 -9 10 -20 23 -25 34 -14 18 -12
-239 20 -297 38 -313 40 -320 52 -9 14 4 38 18 33 7 -2 123 -18 258 -35z m447
-96 c-3 -3 -12 -4 -19 -1 -8 3 -5 6 6 6 11 1 17 -2 13 -5z m3704 -248 c24 -8
81 -24 127 -37 66 -18 81 -26 76 -38 -3 -9 -17 -61 -32 -116 -14 -55 -27 -102
-29 -104 -1 -2 -44 4 -95 13 -51 10 -118 21 -148 25 -30 4 -55 11 -54 16 1 6
11 46 22 90 12 44 26 99 32 123 12 48 26 52 101 28z m1162 -13 c26 -9 47 -21
47 -26 0 -4 -4 -6 -9 -2 -10 6 -24 -7 -60 -53 -13 -18 -33 -32 -44 -32 -13 0
-17 -5 -13 -16 3 -8 2 -12 -4 -9 -6 3 -10 0 -10 -9 0 -8 6 -16 13 -19 6 -2 9
-8 5 -12 -4 -4 -14 -2 -23 5 -13 11 -14 10 -9 -4 4 -9 1 -16 -6 -16 -9 0 -11
-12 -7 -42 5 -39 5 -41 -7 -19 -14 25 -14 25 27 166 21 76 34 105 45 105 4 0
28 -8 55 -17z m199 -310 c-5 -10 -15 -44 -22 -75 -14 -59 -24 -70 -59 -61 -33
9 -25 35 30 96 53 59 66 69 51 40z m-338 -35 c-9 -14 -23 1 -21 23 1 19 2 19
14 3 7 -9 10 -21 7 -26z m-14 -23 c10 -12 10 -15 -1 -16 -8 -1 -3 -5 11 -9 24
-8 24 -8 -7 -9 -31 -1 -58 19 -35 27 7 2 10 8 6 13 -9 15 13 10 26 -6z m-4133
-577 c-3 -7 -5 -2 -5 12 0 14 2 19 5 13 2 -7 2 -19 0 -25z m-10 -40 c-3 -8 -6
-5 -6 6 -1 11 2 17 5 13 3 -3 4 -12 1 -19z"/>
<path d="M6331 4588 c0 -9 -4 -25 -7 -35 -5 -17 -5 -17 6 0 6 10 9 25 7 35 -4
15 -5 15 -6 0z"/>
<path d="M1142 4300 c0 -14 2 -19 5 -12 2 6 2 18 0 25 -3 6 -5 1 -5 -13z"/>
<path d="M6264 4184 c3 -9 6 -28 7 -42 0 -25 1 -26 9 -5 10 24 2 63 -12 63 -6
0 -7 -7 -4 -16z"/>
<path d="M6143 3883 c-7 -2 -13 -9 -13 -15 0 -6 6 -6 15 2 8 6 19 9 24 6 5 -4
12 -2 16 4 6 10 -20 12 -42 3z"/>
<path d="M6150 3800 c-21 -50 -21 -62 -2 -77 16 -12 16 -14 -2 -28 -13 -10
-22 -11 -26 -4 -4 5 -7 -3 -8 -20 0 -17 4 -33 9 -36 5 -4 9 3 9 14 0 14 6 21
20 21 16 0 20 7 20 31 0 36 22 58 60 59 l25 1 -25 12 c-14 6 -28 16 -33 22 -4
6 -10 0 -14 -15 -7 -22 -8 -21 -13 15 l-5 40 -15 -35z"/>
<path d="M6102 3740 c0 -14 2 -19 5 -12 2 6 2 18 0 25 -3 6 -5 1 -5 -13z"/>
<path d="M6180 3641 c0 -5 -8 -11 -17 -14 -14 -3 -11 -6 10 -11 15 -5 27 -12
27 -16 0 -5 -8 -6 -19 -3 -16 4 -18 -1 -17 -36 1 -44 4 -48 25 -28 11 10 13 9
8 -4 -3 -9 -1 -22 4 -30 10 -16 13 109 3 135 -7 17 -24 22 -24 7z"/>
<path d="M6395 3620 c3 -6 -3 -23 -14 -39 -22 -31 -27 -46 -12 -36 11 6 41 63
41 77 0 4 -5 8 -11 8 -5 0 -7 -5 -4 -10z"/>
<path d="M6350 3580 c0 -5 5 -10 10 -10 6 0 10 5 10 10 0 6 -4 10 -10 10 -5 0
-10 -4 -10 -10z"/>
<path d="M6232 3493 c-8 -25 -8 -39 -2 -41 6 -2 8 -8 4 -13 -3 -5 6 -9 20 -9
14 0 27 4 30 9 4 5 -3 7 -14 4 -24 -6 -24 -5 -5 40 19 46 19 47 -3 47 -13 0
-22 -12 -30 -37z"/>
<path d="M6290 3499 c0 -5 5 -7 10 -4 6 3 10 8 10 11 0 2 -4 4 -10 4 -5 0 -10
-5 -10 -11z"/>
<path d="M6315 3479 c-4 -6 -5 -12 -2 -15 2 -3 7 2 10 11 7 17 1 20 -8 4z"/>
<path d="M6190 3456 c0 -8 4 -17 8 -20 4 -2 8 4 8 15 0 10 -4 19 -8 19 -4 0
-8 -6 -8 -14z"/>
<path d="M6162 3349 c2 -6 8 -10 13 -10 5 0 11 4 13 10 2 6 -4 11 -13 11 -9 0
-15 -5 -13 -11z"/>
<path d="M6216 3315 c-9 -26 -7 -32 5 -12 6 10 9 21 6 23 -2 3 -7 -2 -11 -11z"/>
<path d="M5930 3180 c0 -5 5 -10 11 -10 5 0 7 5 4 10 -3 6 -8 10 -11 10 -2 0
-4 -4 -4 -10z"/>
<path d="M6083 3155 c-3 -9 -3 -19 1 -22 3 -4 6 1 6 10 0 8 8 18 18 20 16 4
16 5 -1 6 -10 0 -20 -6 -24 -14z"/>
<path d="M1241 6224 c0 -11 3 -14 6 -6 3 7 2 16 -1 19 -3 4 -6 -2 -5 -13z"/>
<path d="M1263 6201 c-21 -24 -28 -40 -22 -47 5 -6 6 -20 3 -30 -6 -15 -4 -17
6 -7 7 7 13 26 12 43 0 16 3 30 8 30 10 0 34 39 28 45 -2 1 -17 -14 -35 -34z"/>
<path d="M1187 6196 c-4 -10 -5 -21 -2 -24 9 -9 17 6 13 25 -3 17 -4 17 -11
-1z"/>
<path d="M2470 5629 c-30 -5 -75 -15 -100 -23 -49 -17 -41 -16 106 10 72 12
108 14 171 6 72 -9 89 -15 162 -62 80 -51 151 -80 198 -80 81 0 -52 79 -222
133 -86 26 -205 33 -315 16z m450 -85 c41 -21 57 -33 44 -34 -28 0 -83 23
-131 56 -37 25 -37 25 -8 18 17 -4 59 -22 95 -40z"/>
<path d="M2275 5577 c-41 -16 -107 -58 -101 -64 3 -3 18 4 34 16 17 12 50 30
74 40 47 21 42 27 -7 8z"/>
<path d="M4370 5550 c-87 -11 -171 -39 -217 -71 -23 -16 -47 -29 -55 -30 -7 0
-1 -4 13 -9 34 -10 106 2 198 34 86 30 267 50 351 40 30 -4 84 -17 119 -30 66
-25 99 -26 40 -1 -67 28 -136 47 -223 62 -94 16 -136 17 -226 5z m145 -21
c-22 -4 -58 -8 -81 -8 -22 -1 -87 -15 -143 -32 -106 -31 -159 -36 -111 -9 55
31 194 59 285 58 74 0 83 -2 50 -9z"/>
<path d="M1112 5445 c0 -16 2 -22 5 -12 2 9 2 23 0 30 -3 6 -5 -1 -5 -18z"/>
<path d="M4935 5415 c43 -25 89 -55 102 -67 13 -12 26 -19 29 -16 6 7 -92 75
-153 107 -74 37 -60 23 22 -24z"/>
<path d="M920 5064 c0 -8 5 -12 10 -9 6 3 10 10 10 16 0 5 -4 9 -10 9 -5 0
-10 -7 -10 -16z"/>
<path d="M2240 5026 c0 -14 54 -31 137 -42 129 -18 290 -67 396 -120 49 -25
92 -42 96 -39 10 10 -27 34 -114 75 -126 59 -236 89 -405 110 -41 6 -82 13
-92 16 -10 3 -18 3 -18 0z"/>
<path d="M6423 4965 c0 -27 2 -38 4 -22 2 15 2 37 0 50 -2 12 -4 0 -4 -28z"/>
<path d="M6640 4900 c0 -5 9 -10 20 -10 11 0 20 5 20 10 0 6 -9 10 -20 10 -11
0 -20 -4 -20 -10z"/>
<path d="M6570 4884 c0 -8 5 -12 10 -9 6 3 10 10 10 16 0 5 -4 9 -10 9 -5 0
-10 -7 -10 -16z"/>
<path d="M6640 4876 c0 -2 7 -17 15 -32 l15 -29 0 33 c0 22 -5 32 -15 32 -8 0
-15 -2 -15 -4z"/>
<path d="M6567 4820 c3 -11 7 -20 9 -20 2 0 4 9 4 20 0 11 -4 20 -9 20 -5 0
-7 -9 -4 -20z"/>
<path d="M6761 4814 c0 -11 3 -14 6 -6 3 7 2 16 -1 19 -3 4 -6 -2 -5 -13z"/>
<path d="M6286 4797 c3 -10 9 -15 12 -12 3 3 0 11 -7 18 -10 9 -11 8 -5 -6z"/>
<path d="M6440 4752 c0 -25 16 -37 23 -18 3 8 -1 20 -9 26 -11 10 -14 9 -14
-8z"/>
<path d="M6283 4745 c-3 -9 -3 -18 -1 -21 3 -3 8 4 11 16 6 23 -1 27 -10 5z"/>
<path d="M6480 4730 c0 -5 10 -10 23 -10 18 0 19 2 7 10 -19 13 -30 13 -30 0z"/>
<path d="M6250 4688 c0 -36 9 -33 16 6 2 14 0 26 -6 26 -5 0 -10 -14 -10 -32z"/>
<path d="M6210 4671 c0 -16 12 -41 20 -41 4 0 5 11 2 25 -4 23 -22 36 -22 16z"/>
<path d="M6234 4562 c3 -6 2 -30 -3 -53 -5 -23 -6 -37 -1 -33 15 17 21 82 9
90 -7 4 -9 3 -5 -4z"/>
<path d="M6171 4320 c-1 -8 -4 -26 -7 -40 -5 -22 -4 -23 6 -7 6 10 9 28 7 40
-2 12 -5 15 -6 7z"/>
<path d="M6150 4199 c0 -5 5 -7 10 -4 6 3 10 8 10 11 0 2 -4 4 -10 4 -5 0 -10
-5 -10 -11z"/>
<path d="M6141 4144 c0 -11 3 -14 6 -6 3 7 2 16 -1 19 -3 4 -6 -2 -5 -13z"/>
<path d="M6952 3617 c-36 -263 -65 -600 -86 -1002 -24 -455 -27 -572 -16 -553
11 18 13 42 31 453 11 268 34 574 43 582 3 4 6 -1 6 -9 0 -18 130 -283 154
-313 31 -39 15 4 -44 121 -88 174 -110 233 -110 298 0 68 37 416 50 471 12 49
13 102 2 109 -4 2 -17 -68 -30 -157z"/>
<path d="M2588 3643 c-9 -2 -35 -29 -58 -59 -22 -30 -58 -65 -78 -79 -20 -13
-48 -34 -62 -45 l-25 -21 25 7 c51 14 220 163 220 194 0 5 -1 9 -2 9 -2 -1
-11 -3 -20 -6z"/>
<path d="M2980 3291 c-12 -24 -13 -31 -2 -31 5 0 14 11 20 25 14 29 -2 34 -18
6z"/>
<path d="M4984 3252 c-52 -47 -126 -84 -199 -101 l-40 -9 36 -1 c55 -2 127 27
207 82 83 57 92 67 60 67 -13 -1 -42 -18 -64 -38z"/>
<path d="M2495 3070 c-3 -5 -1 -10 4 -10 6 0 11 5 11 10 0 6 -2 10 -4 10 -3 0
-8 -4 -11 -10z"/>
<path d="M2483 3032 c-15 -25 -111 -517 -174 -897 -11 -66 -42 -237 -69 -380
-49 -259 -76 -409 -131 -730 -16 -93 -38 -215 -49 -270 -42 -213 -69 -369 -65
-373 3 -3 22 -13 44 -23 l39 -17 6 62 c4 33 11 77 16 96 11 43 26 135 50 300
50 339 83 555 140 895 10 61 32 193 49 295 17 102 44 262 60 357 17 94 37 222
45 285 9 62 22 151 30 198 16 96 30 220 25 220 -2 0 -9 -8 -16 -18z"/>
<path d="M51 3024 c0 -11 3 -14 6 -6 3 7 2 16 -1 19 -3 4 -6 -2 -5 -13z"/>
<path d="M105 3020 c-4 -6 -2 -17 4 -23 9 -9 14 -8 21 3 8 13 10 12 10 -4 0
-12 5 -16 15 -12 8 3 25 2 38 -3 26 -10 77 -3 77 10 0 5 -6 9 -14 9 -8 0 -16
4 -18 9 -5 15 -125 25 -133 11z"/>
<path d="M287 2991 c-5 -22 1 -33 14 -25 12 7 12 44 0 44 -5 0 -11 -9 -14 -19z"/>
<path d="M625 2958 c-13 -39 -44 -233 -37 -239 4 -4 31 -9 61 -11 l55 -3 17
95 c25 131 24 155 -2 157 -14 1 -23 -5 -27 -20 -6 -21 -6 -21 -12 3 -6 27 -47
41 -55 18z m52 -80 c-3 -8 -6 -5 -6 6 -1 11 2 17 5 13 3 -3 4 -12 1 -19z"/>
<path d="M741 2837 c-29 -159 -33 -147 41 -152 9 0 20 -4 24 -8 12 -12 62 -8
67 6 3 7 6 5 6 -5 1 -14 10 -18 39 -18 l38 0 18 108 c10 59 20 115 23 125 5
20 1 21 -85 34 -53 8 -65 7 -72 -6 -8 -14 -9 -14 -10 0 0 15 -27 29 -56 29 -7
0 -21 -48 -33 -113z m86 11 c-3 -7 -5 -2 -5 12 0 14 2 19 5 13 2 -7 2 -19 0
-25z m-10 -55 c-3 -10 -5 -4 -5 12 0 17 2 24 5 18 2 -7 2 -21 0 -30z m-10 -60
c-3 -10 -5 -4 -5 12 0 17 2 24 5 18 2 -7 2 -21 0 -30z"/>
<path d="M1015 2897 c-12 -37 -47 -238 -42 -244 4 -3 27 -7 53 -9 25 -3 53 -8
62 -13 10 -5 38 -11 63 -15 l46 -7 16 88 c9 48 19 106 22 128 l6 41 -60 13
c-33 7 -75 15 -93 16 -18 2 -33 4 -33 5 0 9 -37 5 -40 -3z"/>
<path d="M1606 2899 c-3 -8 -12 -34 -21 -59 -9 -25 -19 -54 -21 -65 l-5 -20
16 20 c18 23 50 124 41 132 -3 3 -8 0 -10 -8z"/>
<path d="M1635 2898 c-8 -24 -25 -103 -25 -120 0 -26 23 -22 50 7 28 30 19 46
-11 19 -22 -19 -22 -19 -16 6 13 58 19 100 13 100 -4 0 -9 -6 -11 -12z"/>
<path d="M1794 2865 c-4 -9 -4 -18 -2 -21 9 -8 39 8 35 19 -6 18 -27 20 -33 2z"/>
<path d="M1727 2832 c-34 -35 -37 -65 -4 -34 13 12 26 22 29 22 3 0 13 -18 23
-40 10 -22 24 -40 32 -40 7 0 13 2 13 5 0 10 -55 115 -60 115 -4 0 -18 -13
-33 -28z"/>
<path d="M2845 2828 c-14 -60 -32 -184 -28 -192 15 -24 153 47 153 79 0 22
-19 28 -36 10 -26 -26 -64 -48 -70 -42 -4 3 -1 35 5 70 6 35 11 71 11 80 0 25
-29 20 -35 -5z"/>
<path d="M2777 2833 c-4 -3 -7 -13 -7 -22 0 -37 -23 -94 -51 -125 -16 -19 -29
-39 -29 -45 0 -17 35 -13 52 7 46 52 87 192 56 192 -8 0 -18 -3 -21 -7z"/>
<path d="M3220 2825 c-7 -8 -19 -15 -26 -15 -20 0 -17 -14 5 -34 18 -17 21
-17 45 -1 31 21 32 27 7 49 -16 15 -19 15 -31 1z"/>
<path d="M2106 2809 c-7 -22 -26 -119 -26 -134 0 -23 36 -17 70 11 21 19 28
30 21 37 -7 7 -17 5 -31 -8 -28 -25 -32 -16 -20 40 7 32 7 52 1 58 -7 7 -12 6
-15 -4z"/>
<path d="M2055 2778 c-4 -18 -18 -50 -32 -71 -25 -40 -25 -54 0 -44 19 7 57
87 57 120 0 38 -17 34 -25 -5z"/>
<path d="M2241 2784 c-23 -16 -51 -70 -51 -97 0 -7 6 -21 13 -31 21 -29 51 -6
78 59 25 60 42 66 47 17 3 -31 -18 -63 -49 -74 -11 -4 -11 -8 -3 -18 9 -9 17
-8 36 4 46 30 64 109 32 140 -20 21 -73 20 -103 0z m14 -64 c-19 -42 -35 -52
-35 -21 0 20 39 75 48 67 3 -3 -3 -24 -13 -46z"/>
<path d="M3069 2759 c-50 -37 -68 -68 -43 -76 5 -2 30 13 53 34 l44 37 21 -25
c11 -14 38 -45 58 -70 35 -42 37 -43 54 -27 17 17 17 19 -6 45 -49 57 -114
123 -120 123 -4 0 -31 -18 -61 -41z"/>
<path d="M1852 2778 c5 -13 127 -40 140 -31 19 11 3 20 -56 31 -80 15 -89 15
-84 0z"/>
<path d="M3733 2732 c-6 -4 -14 -24 -18 -44 -8 -41 -59 -128 -75 -128 -13 0
-13 -27 0 -35 28 -17 94 68 112 145 12 51 4 76 -19 62z"/>
<path d="M3787 2652 c-23 -120 -22 -132 6 -132 30 0 128 50 141 72 21 35 -7
38 -53 8 -69 -47 -68 -48 -45 98 6 37 4 42 -13 42 -16 0 -22 -14 -36 -88z"/>
<path d="M3322 2693 c2 -14 27 -20 138 -34 74 -9 138 -15 143 -12 12 7 8 33
-5 33 -7 0 -60 7 -118 15 -142 19 -162 19 -158 -2z"/>
<path d="M4048 2679 c-62 -32 -88 -116 -52 -167 35 -50 90 -19 139 79 20 38
39 69 43 69 18 0 52 -48 52 -72 0 -31 -42 -75 -81 -83 -30 -7 -39 -32 -15 -41
22 -8 102 31 120 59 22 33 23 90 2 122 -36 54 -138 71 -208 34z m55 -57 c-20
-52 -57 -97 -71 -88 -7 4 -12 21 -12 37 0 36 47 89 78 89 20 0 20 -2 5 -38z"/>
<path d="M585 2668 c-7 -17 0 -64 8 -60 4 1 11 2 15 2 5 0 14 10 20 23 10 19
10 18 5 -10 -3 -18 -3 -33 1 -33 3 0 15 15 26 33 l20 32 -6 -31 c-7 -35 9 -53
30 -35 9 7 16 7 24 -1 8 -8 15 -8 27 2 13 11 14 10 9 -4 -4 -11 -1 -16 14 -16
11 0 23 6 25 13 4 7 6 6 6 -4 1 -17 44 -29 124 -34 32 -3 40 1 49 21 6 13 15
24 20 24 11 0 10 -7 -4 -30 -11 -17 -10 -22 2 -30 22 -14 30 -12 30 8 0 9 5
24 11 32 8 12 10 9 6 -13 -5 -34 9 -45 29 -21 14 17 15 17 10 2 -7 -23 11 -33
30 -17 12 10 15 10 12 -2 -5 -24 26 -16 39 10 14 29 0 66 -22 57 -8 -3 -17 -1
-20 4 -4 7 -13 6 -26 0 -13 -8 -19 -7 -19 0 0 6 -8 10 -17 8 -10 -1 -24 1 -30
5 -7 4 -27 9 -45 11 -18 2 -41 7 -52 11 -11 5 -21 3 -26 -4 -5 -10 -9 -9 -13
2 -4 10 -18 14 -46 13 -23 -1 -41 2 -41 7 0 5 -11 7 -25 5 -14 -3 -28 -1 -32
5 -4 6 -12 3 -20 -8 -11 -15 -13 -16 -13 -3 0 10 -14 18 -42 22 -24 4 -53 9
-65 13 -15 3 -25 0 -28 -9z m290 -57 c3 -5 1 -12 -5 -16 -5 -3 -10 1 -10 9 0
18 6 21 15 7z m31 -38 c-10 -10 -19 5 -10 18 6 11 8 11 12 0 2 -7 1 -15 -2
-18z m45 0 c-8 -15 -10 -15 -11 -2 0 17 10 32 18 25 2 -3 -1 -13 -7 -23z"/>
<path d="M542 2473 c-13 -25 -47 -241 -40 -248 3 -4 21 -8 40 -10 18 -2 42 -5
53 -7 17 -3 22 10 44 125 13 70 22 129 20 131 -2 3 -24 7 -49 11 -24 4 -48 9
-52 11 -4 3 -11 -3 -16 -13z"/>
<path d="M2847 2476 c-6 -16 2 -28 14 -20 12 7 11 34 0 34 -5 0 -11 -6 -14
-14z"/>
<path d="M675 2448 c-12 -39 -46 -231 -42 -242 3 -7 29 -16 59 -20 29 -3 67
-9 83 -12 17 -3 44 -7 60 -7 l30 -2 22 110 c31 156 32 151 -24 161 -27 4 -62
9 -80 9 -18 1 -35 4 -39 8 -12 12 -64 8 -69 -5z m72 -50 c-3 -8 -6 -5 -6 6 -1
11 2 17 5 13 3 -3 4 -12 1 -19z"/>
<path d="M2690 2453 c0 -5 7 -18 15 -29 12 -16 14 -16 15 -3 0 9 -7 22 -15 29
-8 7 -15 8 -15 3z"/>
<path d="M2795 2450 c-3 -5 -1 -10 4 -10 6 0 11 5 11 10 0 6 -2 10 -4 10 -3 0
-8 -4 -11 -10z"/>
<path d="M920 2410 c0 -6 -9 -66 -21 -132 -11 -66 -19 -122 -17 -124 3 -2 24
-6 49 -9 24 -3 71 -12 103 -20 33 -9 63 -12 67 -8 10 10 49 206 49 244 0 25
-4 26 -77 37 -43 7 -95 15 -115 18 -27 5 -38 3 -38 -6z"/>
<path d="M3760 2305 c-8 -2 -49 -8 -90 -15 -448 -70 -825 -387 -1049 -883 -90
-201 -130 -398 -138 -687 -4 -155 -2 -217 11 -305 22 -136 45 -236 60 -252 11
-12 186 -61 316 -88 103 -22 333 -56 338 -50 3 2 -6 19 -20 37 -78 105 -144
254 -173 393 -22 106 -30 327 -16 440 42 338 184 577 446 750 185 122 278 151
490 149 107 -1 158 -6 217 -22 187 -51 335 -140 510 -310 l117 -114 48 42 c26
24 114 101 196 173 81 71 147 133 147 137 0 16 -144 170 -223 238 -209 181
-417 287 -679 344 -71 15 -140 21 -293 23 -110 2 -207 2 -215 0z"/>
<path d="M509 2178 c0 -2 -1 -16 -2 -33 -3 -44 17 -47 21 -2 2 21 -1 37 -7 37
-6 0 -11 -1 -12 -2z"/>
<path d="M552 2167 c-14 -17 -8 -73 8 -69 7 1 17 -2 24 -7 7 -6 31 -9 54 -8
28 2 43 -2 47 -11 4 -11 8 -12 19 -3 11 9 16 9 22 0 5 -9 10 -7 20 5 11 16 13
16 19 -4 5 -17 12 -20 30 -16 14 4 25 1 28 -7 6 -18 37 10 38 37 1 11 5 3 9
-19 6 -35 8 -37 15 -17 4 12 12 22 17 22 5 0 6 -9 3 -20 -7 -23 13 -28 33 -8
9 9 12 9 12 -3 0 -19 99 -42 117 -28 6 6 11 26 11 45 0 30 -3 35 -19 31 -10
-3 -22 -1 -25 5 -3 5 -12 7 -20 4 -7 -3 -16 -1 -19 4 -3 5 -26 8 -50 7 -25 -1
-45 1 -45 6 0 4 -8 7 -17 6 -10 -1 -26 2 -37 6 -11 5 -21 3 -26 -5 -6 -10 -8
-10 -12 1 -4 12 -21 17 -88 23 -19 2 -43 7 -54 11 -11 5 -21 3 -26 -4 -5 -9
-9 -8 -14 4 -3 10 -12 15 -21 11 -8 -3 -17 -1 -20 4 -8 14 -21 12 -33 -3z m52
-26 c3 -5 -1 -14 -8 -20 -12 -10 -13 -8 -9 8 6 23 9 25 17 12z m129 -36 c-3
-9 -8 -14 -10 -11 -3 3 -2 9 2 15 9 16 15 13 8 -4z"/>
<path d="M1758 2148 c-2 -19 -10 -24 -40 -26 -21 -2 -38 -9 -38 -15 0 -7 -3
-22 -6 -34 -5 -19 -1 -23 30 -29 35 -6 36 -8 34 -42 -3 -35 -1 -37 34 -42 42
-8 58 3 58 37 0 19 5 23 30 23 49 0 64 65 17 72 -17 2 -21 9 -19 30 3 31 0 34
-55 43 -38 6 -42 5 -45 -17z"/>
<path d="M2028 2098 c-8 -23 -16 -28 -44 -28 -32 0 -34 -2 -34 -34 0 -28 4
-35 23 -38 18 -2 22 -10 23 -38 0 -34 2 -35 45 -41 53 -8 55 -7 62 31 6 27 10
30 47 30 33 0 40 3 40 19 0 11 3 26 6 34 4 10 -5 16 -30 21 -31 6 -36 11 -36
35 0 27 -3 29 -46 33 -43 3 -47 1 -56 -24z"/>
<path d="M2110 1853 c0 -5 4 -15 10 -23 11 -18 25 -7 17 15 -6 15 -27 21 -27
8z"/>
<path d="M1477 1223 c-3 -4 -8 -23 -12 -40 -6 -29 -10 -33 -38 -30 -28 2 -32
-1 -32 -23 0 -20 7 -26 38 -35 21 -6 39 -15 39 -20 1 -8 -68 -60 -110 -84 -10
-6 -13 -17 -8 -36 6 -24 10 -27 37 -21 26 5 29 3 25 -17 -27 -126 -27 -131 -9
-144 23 -18 31 -16 43 7 l11 21 18 -22 17 -21 45 22 c90 45 132 105 152 218
10 57 15 67 35 70 14 2 25 -3 29 -14 7 -20 -22 -183 -43 -232 -13 -32 -16 -34
-56 -30 -36 2 -43 0 -46 -16 -6 -28 25 -46 75 -46 59 0 87 31 107 118 23 102
49 253 44 257 -2 2 -57 13 -123 23 -90 15 -122 17 -130 9 -5 -7 -22 -11 -37
-9 -26 3 -28 6 -25 50 2 41 -1 47 -20 50 -11 2 -23 0 -26 -5z m161 -148 c7 -6
-27 -135 -43 -162 -20 -33 -89 -83 -116 -83 -15 0 -17 6 -12 38 9 60 19 71 34
39 14 -30 40 -35 60 -11 10 12 10 20 1 35 -15 24 -15 29 2 29 22 0 28 17 14
40 -14 21 -43 27 -53 10 -3 -5 -12 -10 -18 -10 -7 1 10 21 37 46 37 34 54 43
70 38 11 -4 22 -7 24 -9z"/>
<path d="M3980 1118 c0 -13 5 -30 10 -38 7 -11 10 -7 10 17 0 17 -4 35 -10 38
-6 3 -10 -4 -10 -17z"/>
<path d="M4035 1120 c3 -5 8 -10 11 -10 2 0 4 5 4 10 0 6 -5 10 -11 10 -5 0
-7 -4 -4 -10z"/>
<path d="M4878 968 c-3 -7 -16 -66 -29 -130 -27 -137 -13 -129 -171 -98 -56
11 -105 16 -109 12 -11 -13 -31 -134 -22 -142 4 -4 61 -15 126 -25 64 -9 119
-21 122 -25 2 -4 -6 -68 -19 -141 -13 -74 -22 -137 -20 -140 2 -4 31 -12 65
-18 65 -13 79 -8 79 29 0 29 42 235 50 243 4 5 56 0 116 -11 60 -11 113 -16
117 -12 12 11 37 124 29 132 -4 3 -56 14 -117 24 -60 10 -114 21 -118 25 -5 3
3 62 18 129 14 68 22 126 18 130 -7 6 -105 30 -123 30 -4 0 -10 -6 -12 -12z"/>
<path d="M5686 861 c-8 -12 -47 -213 -43 -217 2 -2 38 21 80 51 53 39 79 65
83 83 3 15 8 35 10 44 3 10 -2 19 -13 22 -38 12 -114 23 -117 17z"/>
<path d="M5375 608 c-14 -46 -24 -123 -16 -131 11 -11 50 8 146 71 l70 46 -75
12 c-98 16 -120 17 -125 2z"/>
</g>
</svg>
